<svg xmlns="http://www.w3.org/2000/svg" viewBox="0 0 120 120">
<defs>
<radialGradient id="metal" cx=".25" cy=".2"><stop stop-color="#8b764c"/><stop offset=".7" stop-color="#25271e"/><stop offset=".9" stop-color="#151813"/><stop offset=".96" stop-color="#b69b5b"/><stop offset="1" stop-color="#4c3e26"/></radialGradient>
<linearGradient id="cigar"><stop stop-color="#a16a36"/><stop offset=".45" stop-color="#704022"/><stop offset="1" stop-color="#372215"/></linearGradient>
</defs>
<ellipse cx="59" cy="75" rx="39" ry="34" fill="#060705" opacity=".6"/>
<circle cx="54" cy="65" r="39" fill="url(#metal)" stroke="#ae8a48"/>
<circle cx="54" cy="65" r="28" fill="#1d2019" stroke="#695c39"/>
<path d="M37 59l12 9-9 7 22 8-6-16 18 6" fill="none" stroke="#777265" stroke-width="3" opacity=".55"/>
<g transform="rotate(34 73 43)">
<rect x="65" y="6" width="13" height="65" rx="5" fill="url(#cigar)" stroke="#362317"/>
<path d="M65 17l13 3m-13 12l13 3m-13 12l13 3" stroke="#c18c51" stroke-opacity=".35"/>
<rect x="65" y="58" width="13" height="12" rx="3" fill="#676153"/>
<path d="M67 59l8 4-6 3 7 2" stroke="#aaa08a" fill="none" stroke-width="2"/>
<path d="M66 57h11" stroke="#c36e2d" stroke-opacity=".7"/>
</g>
</svg>
